<svg xmlns="http://www.w3.org/2000/svg" viewBox="0 0 32 32">
  <defs>
    <linearGradient id="ic-bg" x1="0" y1="0" x2="1" y2="1">
      <stop offset="0%" stop-color="#e2536b" />
      <stop offset="100%" stop-color="#b8324a" />
    </linearGradient>
    <linearGradient id="ic-shine" x1="0" y1="0" x2="0" y2="1">
      <stop offset="0%" stop-color="#ffffff" stop-opacity="0.32" />
      <stop offset="100%" stop-color="#ffffff" stop-opacity="0" />
    </linearGradient>
  </defs>
  <rect width="32" height="32" rx="8" fill="url(#ic-bg)" />
  <rect width="32" height="16" rx="8" fill="url(#ic-shine)" />
  <path
    d="M11.5 9.2c2 0 3.6 0.9 4.5 1.9 0.9-1 2.5-1.9 4.5-1.9 0.6 0 1 0.4 1 1v10.4c0 0.6-0.4 1-1 1-1.6 0-3.1 0.6-4.2 1.6a1 1 0 0 1-1.6 0c-1.1-1-2.6-1.6-4.2-1.6-0.6 0-1-0.4-1-1V10.2c0-0.6 0.4-1 1-1zM16 12.4v7.4"
    fill="none"
    stroke="#fff"
    stroke-width="1.6"
    stroke-linecap="round"
    stroke-linejoin="round"
  />
  <circle cx="24.5" cy="7.5" r="2.2" fill="#fcd34d" stroke="#b8324a" stroke-width="1" />
</svg>
